<?xml version="1.0" standalone="no"?>
<!DOCTYPE svg PUBLIC "-//W3C//DTD SVG 20010904//EN"
 "http://www.w3.org/TR/2001/REC-SVG-20010904/DTD/svg10.dtd">
<svg version="1.0" xmlns="http://www.w3.org/2000/svg"
 width="1136.000000pt" height="1136.000000pt" viewBox="0 0 1136.000000 1136.000000"
 preserveAspectRatio="xMidYMid meet">
<metadata>
Created by potrace 1.14, written by Peter Selinger 2001-2017
</metadata>
<g transform="translate(0.000000,1136.000000) scale(0.100000,-0.100000)"
fill="#000000" stroke="none">
<path d="M43 9537 c-18 -13 -34 -34 -37 -51 -11 -52 -7 -7603 4 -7630 5 -14
24 -35 42 -46 32 -19 53 -20 800 -20 782 0 797 0 835 36 7 7 16 29 20 51 5 21
8 637 7 1370 l0 1331 73 -1 c40 -1 73 2 73 6 0 5 5 5 11 1 6 -4 160 -6 342 -6
197 1 338 -3 349 -9 10 -5 18 -16 18 -24 0 -8 4 -15 9 -15 5 0 12 -12 16 -27
3 -15 10 -30 14 -33 4 -3 27 -40 50 -84 57 -106 65 -120 71 -126 3 -3 17 -27
31 -55 53 -100 64 -120 69 -125 3 -3 15 -25 28 -50 13 -25 32 -61 44 -80 11
-19 42 -75 69 -125 27 -49 54 -97 59 -105 5 -8 18 -31 28 -50 22 -41 67 -123
92 -165 19 -32 55 -97 103 -185 27 -50 68 -123 142 -255 39 -68 73 -131 114
-207 51 -94 55 -103 62 -108 3 -3 21 -34 40 -70 18 -36 38 -68 44 -72 5 -4 7
-8 3 -8 -4 0 13 -34 37 -75 25 -42 45 -77 45 -79 0 -3 25 -47 55 -100 30 -52
55 -98 55 -101 0 -3 12 -24 27 -48 15 -23 39 -64 53 -92 15 -27 41 -75 59
-105 17 -30 37 -66 44 -80 6 -14 16 -28 22 -32 5 -4 6 -8 1 -8 -17 0 38 -51
76 -71 35 -18 74 -19 876 -19 817 0 889 2 893 29 0 3 2 16 5 29 2 12 -2 37 -9
55 -11 26 -113 199 -218 372 -11 17 -24 41 -31 55 -7 14 -15 27 -18 30 -12 12
-110 180 -110 189 0 6 -4 11 -9 11 -5 0 -13 10 -17 23 -4 12 -10 24 -13 27
-10 8 -141 231 -141 240 0 5 -3 10 -7 12 -10 4 -73 107 -73 119 0 5 -5 9 -10
9 -6 0 -9 3 -8 8 1 4 -15 34 -35 67 -87 139 -167 277 -167 286 0 5 -4 9 -10 9
-5 0 -10 4 -10 8 0 8 -62 114 -128 220 -13 20 -25 45 -29 55 -3 9 -9 17 -13
17 -4 0 -10 8 -14 18 -3 9 -15 32 -26 50 -11 17 -28 45 -37 62 -10 16 -71 118
-136 225 -64 108 -117 200 -117 206 0 5 -4 9 -10 9 -5 0 -10 7 -10 15 0 8 -4
15 -10 15 -5 0 -10 4 -10 10 0 5 -32 61 -70 124 -39 64 -70 120 -70 126 0 5
-4 10 -10 10 -5 0 -10 4 -10 9 0 4 -27 53 -60 107 l-60 99 42 19 c24 10 48 20
55 21 23 5 257 126 298 155 24 17 46 30 49 30 8 0 128 86 153 109 12 12 25 21
28 21 29 0 343 325 405 419 8 13 20 29 26 35 6 6 17 22 24 36 7 13 17 29 22
34 23 28 68 102 68 113 0 6 7 18 14 26 18 18 131 253 136 282 0 3 10 26 21 52
20 46 36 90 44 123 2 8 10 35 18 60 16 47 51 190 61 250 3 19 8 46 11 60 11
55 16 85 20 124 2 23 7 70 11 106 15 127 6 599 -11 630 -2 3 -6 29 -10 59 -4
30 -8 61 -10 70 -50 228 -65 284 -102 391 -93 271 -224 512 -393 725 -63 78
-227 247 -305 313 -54 46 -222 165 -265 188 -19 10 -37 22 -40 25 -5 6 -52 33
-60 34 -3 0 -21 9 -40 20 -102 56 -330 148 -420 171 -81 20 -107 27 -120 32
-8 3 -22 6 -30 8 -8 1 -53 9 -100 19 -105 20 -114 22 -170 30 -25 3 -61 9 -80
12 -19 3 -811 7 -1760 9 l-1725 3 -32 -22z m3292 -1621 c65 -16 111 -29 130
-36 212 -86 363 -213 450 -379 47 -89 62 -132 91 -263 10 -43 12 -263 3 -313
-5 -27 -11 -65 -14 -82 -10 -62 -51 -167 -96 -242 -20 -35 -26 -42 -93 -122
-75 -88 -263 -199 -391 -230 -22 -5 -49 -12 -60 -15 -21 -7 -1612 -13 -1631
-7 -7 3 -10 259 -10 851 l0 848 795 -1 c438 -1 810 -4 826 -9z"/>
<path d="M8557 9474 c-1 -1 -40 -4 -87 -8 -47 -3 -96 -8 -110 -10 -14 -3 -48
-7 -76 -10 -29 -3 -62 -7 -75 -10 -22 -5 -80 -15 -119 -20 -8 -2 -24 -5 -35
-9 -18 -6 -65 -15 -105 -22 -8 -1 -22 -5 -30 -8 -29 -12 -185 -51 -192 -49 -5
1 -8 -2 -8 -6 0 -5 -6 -9 -12 -9 -15 0 -127 -38 -173 -57 -16 -8 -50 -21 -75
-31 -101 -41 -235 -104 -340 -162 -30 -17 -70 -39 -89 -49 -19 -11 -40 -22
-45 -27 -6 -4 -56 -37 -111 -73 -140 -92 -159 -111 -169 -169 -7 -35 13 -82
53 -127 17 -20 31 -41 31 -47 0 -6 4 -11 8 -11 4 0 33 -33 64 -72 31 -40 67
-86 80 -102 13 -16 47 -59 75 -95 29 -36 63 -79 75 -94 33 -41 93 -67 130 -56
17 4 80 41 140 80 105 68 358 205 358 194 0 -3 10 1 23 9 12 7 63 28 112 46
50 18 97 35 105 38 24 8 30 10 150 42 63 16 133 33 155 36 22 4 49 8 60 10
152 24 204 28 400 28 173 1 285 -6 355 -19 10 -2 40 -7 67 -10 26 -4 64 -11
83 -15 19 -5 46 -11 60 -14 38 -8 114 -26 125 -30 6 -2 13 -4 18 -5 4 0 23 -7
42 -15 20 -9 39 -15 43 -16 12 -1 46 -11 67 -20 11 -4 56 -23 100 -40 163 -65
464 -236 540 -308 12 -10 26 -21 32 -23 36 -13 351 -317 389 -374 10 -16 36
-36 57 -45 60 -27 110 -13 177 47 14 13 28 23 31 23 3 0 16 8 28 18 32 26 59
46 141 106 41 31 80 59 85 64 6 4 45 33 87 65 43 31 84 69 92 84 16 31 14 115
-3 121 -6 2 -11 8 -11 14 0 5 -6 15 -12 22 -7 8 -33 37 -58 67 -63 75 -284
295 -350 349 -30 25 -57 47 -60 51 -14 16 -197 150 -280 205 -199 130 -437
253 -620 321 -36 13 -74 28 -85 33 -44 19 -309 97 -363 105 -15 3 -54 11 -87
20 -33 8 -78 17 -100 20 -58 9 -97 15 -125 20 -14 2 -54 7 -90 10 -36 3 -83 9
-105 12 -35 5 -433 12 -438 7z"/>
<path d="M8419 7866 c-3 -3 -133 -17 -181 -19 -10 -1 -18 -4 -18 -7 0 -3 -12
-5 -27 -6 -45 -2 -109 -11 -119 -16 -12 -7 -93 -21 -97 -16 -2 1 -11 -3 -21
-11 -9 -8 -19 -11 -22 -8 -3 3 -18 1 -33 -5 -14 -5 -33 -11 -41 -13 -148 -35
-498 -189 -628 -276 -24 -16 -45 -29 -48 -29 -10 0 -139 -93 -159 -114 -11
-11 -22 -32 -24 -46 -2 -14 -4 -32 -6 -40 -1 -8 4 -28 13 -45 16 -32 195 -261
221 -282 8 -7 11 -13 6 -13 -4 0 1 -8 11 -17 10 -10 41 -47 69 -83 95 -125
113 -139 186 -142 14 0 45 11 70 26 24 15 67 41 94 58 137 84 368 181 485 204
14 3 41 9 60 14 19 5 53 11 75 15 23 3 52 8 65 10 112 23 362 22 510 0 8 -2
35 -6 60 -9 24 -3 62 -12 85 -18 22 -6 45 -12 50 -13 6 0 30 -7 55 -14 25 -7
50 -14 55 -16 6 -1 19 -6 30 -10 11 -4 52 -21 91 -36 80 -31 275 -130 294
-149 3 -3 34 -25 70 -49 36 -25 67 -48 68 -53 2 -4 8 -8 12 -8 13 0 66 -48
191 -174 100 -100 112 -109 153 -113 43 -5 86 10 129 47 6 6 104 79 217 162
264 196 261 193 265 254 2 27 -2 59 -8 71 -31 57 -266 296 -378 385 -82 64
-108 84 -130 98 -12 8 -30 22 -38 30 -22 20 -120 80 -131 80 -5 0 -10 4 -12 8
-6 16 -328 184 -358 187 -3 1 -41 15 -85 32 -78 30 -233 80 -276 88 -11 2 -28
6 -37 9 -9 3 -28 8 -42 10 -126 27 -125 27 -305 51 -54 8 -460 17 -466 11z"/>
<path d="M8278 6075 c-2 -2 -34 -6 -73 -10 -38 -4 -72 -8 -75 -10 -3 -1 -27
-6 -54 -9 -27 -4 -52 -9 -56 -11 -4 -2 -17 -6 -31 -9 -47 -10 -144 -37 -164
-45 -11 -5 -47 -19 -80 -32 -33 -12 -102 -42 -152 -66 -51 -24 -96 -43 -99
-42 -4 0 -10 -3 -13 -8 -3 -5 -26 -20 -51 -34 -25 -13 -49 -28 -55 -32 -5 -4
-44 -29 -85 -55 -41 -25 -84 -55 -94 -64 -11 -10 -23 -18 -27 -18 -5 0 -19
-11 -33 -25 -14 -14 -28 -25 -31 -25 -4 0 -12 -6 -19 -12 -7 -7 -35 -31 -62
-53 -130 -106 -414 -417 -414 -454 0 -6 -4 -11 -8 -11 -7 0 -15 -11 -75 -109
-41 -68 -144 -281 -153 -316 -4 -16 -10 -34 -14 -40 -7 -9 -41 -121 -42 -135
0 -3 -7 -25 -14 -50 -7 -25 -16 -61 -18 -80 -3 -19 -12 -78 -20 -130 -19 -130
-14 -424 9 -540 3 -14 7 -36 10 -50 14 -76 28 -135 45 -190 8 -25 15 -49 16
-55 0 -5 5 -19 9 -30 4 -11 25 -64 47 -118 164 -418 492 -831 863 -1088 47
-33 88 -59 92 -59 3 0 14 -7 22 -15 49 -44 401 -196 489 -211 31 -6 120 -26
146 -34 34 -11 662 -8 721 4 22 4 65 14 95 23 30 8 66 17 79 20 14 2 28 6 33
9 4 3 16 7 26 9 30 5 216 77 226 86 6 5 18 9 28 9 10 0 18 5 18 10 0 6 7 10
15 10 8 0 41 14 72 31 32 17 81 43 108 57 28 15 56 32 63 39 6 6 21 15 32 18
11 3 20 11 20 16 0 6 4 8 9 5 5 -4 11 -3 13 1 3 9 64 53 73 53 3 0 13 7 23 16
9 8 51 41 92 72 41 31 82 64 91 74 9 10 19 18 22 18 15 0 241 221 310 304 23
27 50 58 60 68 9 10 17 23 17 28 0 6 4 10 8 10 12 0 163 231 209 320 38 74 85
176 89 195 1 6 11 35 22 65 24 64 43 133 58 210 3 14 7 32 9 40 8 27 19 144
18 185 -1 42 -34 80 -70 82 -27 1 -133 12 -178 18 -22 3 -62 8 -90 11 -61 6
-103 11 -175 20 -109 12 -124 13 -142 3 -23 -12 -37 -39 -44 -86 -17 -114 -22
-137 -56 -238 -32 -97 -67 -175 -83 -187 -5 -4 -6 -8 -2 -8 8 0 3 -9 -33 -65
-11 -16 -24 -39 -29 -51 -5 -11 -15 -27 -23 -35 -7 -8 -33 -41 -57 -74 -70
-94 -322 -340 -336 -327 -3 3 -5 1 -5 -5 0 -6 -33 -33 -72 -59 -40 -27 -74
-52 -76 -56 -2 -5 -7 -8 -12 -8 -4 0 -37 -17 -71 -38 -35 -21 -75 -43 -89 -49
-99 -46 -200 -87 -240 -98 -30 -7 -156 -37 -175 -41 -52 -10 -115 -16 -204
-18 -82 -2 -138 4 -293 29 -73 11 -249 80 -348 136 -85 48 -249 173 -239 183
4 5 368 287 419 326 18 14 39 31 46 38 7 6 15 12 19 12 3 0 16 9 28 20 12 12
55 46 97 78 41 31 77 59 80 62 3 3 34 27 70 55 36 27 70 53 75 57 19 15 190
149 205 161 9 7 33 25 55 42 22 16 47 35 55 42 8 7 62 49 120 94 58 44 119 92
136 106 17 13 56 43 86 66 30 23 95 73 144 111 49 38 118 92 154 120 36 27 71
56 78 63 7 7 17 13 20 13 4 0 18 10 32 23 14 12 54 45 90 72 36 27 72 55 80
62 11 10 201 157 265 205 6 4 38 30 72 58 34 27 67 50 73 50 5 0 10 3 10 8 0
4 38 36 85 71 90 68 108 98 84 143 -20 38 -141 188 -152 188 -6 0 -8 2 -5 5
10 11 -200 229 -323 335 -80 70 -121 103 -165 135 -15 11 -32 25 -38 30 -6 6
-23 16 -38 24 -16 8 -28 18 -28 23 0 4 -6 8 -14 8 -8 0 -16 3 -18 8 -1 4 -23
18 -48 31 -25 14 -47 27 -50 30 -10 12 -249 127 -282 136 -5 2 -9 3 -10 5 -2
1 -10 3 -18 5 -8 2 -39 13 -68 24 -57 21 -201 56 -272 66 -25 3 -54 9 -64 12
-19 5 -333 13 -338 8z m212 -729 c106 -8 144 -15 235 -42 44 -13 87 -26 96
-28 9 -3 25 -9 35 -14 11 -6 44 -22 74 -37 121 -57 245 -140 325 -217 l34 -33
-215 -165 c-119 -91 -223 -173 -232 -182 -9 -10 -22 -18 -29 -18 -7 0 -13 -4
-13 -8 0 -5 -21 -24 -47 -43 -27 -18 -57 -41 -68 -50 -11 -10 -58 -47 -105
-83 -47 -36 -89 -69 -95 -74 -5 -4 -28 -21 -50 -37 -22 -17 -42 -32 -45 -35
-3 -3 -34 -28 -70 -55 -36 -27 -67 -52 -70 -55 -3 -3 -43 -34 -90 -70 -47 -35
-87 -66 -90 -69 -3 -3 -32 -26 -65 -51 -33 -25 -61 -48 -63 -52 -2 -5 -10 -8
-17 -8 -7 0 -15 -4 -17 -9 -1 -5 -50 -45 -108 -89 -58 -45 -109 -85 -115 -89
-5 -5 -39 -31 -75 -58 -36 -28 -70 -54 -76 -60 -6 -5 -64 -50 -129 -100 -64
-49 -147 -114 -183 -142 -37 -29 -70 -53 -74 -53 -14 0 -108 212 -109 245 0 6
-5 16 -11 23 -6 6 -7 12 -4 12 4 0 2 8 -3 19 -28 52 -49 221 -46 371 3 150 6
177 31 270 8 30 16 62 19 70 17 70 109 265 141 301 8 8 14 19 14 23 0 11 69
101 120 157 14 15 37 40 51 55 33 38 126 122 168 154 19 14 42 33 52 43 11 9
19 14 19 10 0 -5 4 -3 8 2 11 15 70 55 82 55 5 0 10 4 10 8 0 11 222 122 243
122 10 0 17 4 17 8 0 5 6 9 13 9 6 1 44 11 82 23 39 11 84 23 100 25 17 3 41
7 55 10 14 3 61 8 105 12 44 3 82 7 83 9 2 1 9 1 15 -1 7 -2 46 -6 87 -9z"/>
</g>
</svg>
