<svg id="Layer_1" data-name="Layer 1" xmlns="http://www.w3.org/2000/svg" viewBox="0 0 610.31 389.12"><defs><style>.cls-1{fill:#d66a53;}.cls-2{fill:#fff;}</style></defs><title>Mesa de trabajo 2</title><path class="cls-1" d="M467.13,334.94c18.75-14.55,29.29-32.36,31.16-49.68.24-1.89.75-3.42,1.81-4.24s2.32-.66,3.58-.51l25.48,2.9a4,4,0,0,1,4.2,4.68c-1.88,27.53-17.94,53.59-45.53,75-51.65,40.08-112.4,33.37-151.1-16.51C298.3,297,305.56,237,355.09,198.57c51.65-40.07,108.66-31.6,154.15,27.75,1.65,2.13,1.68,4.37-.44,6l-133,103.21C401,358.5,436,359.1,467.13,334.94Zm-2.9-106c-24.83-23.24-58.37-25.56-87.73-2.77S340.69,282.28,357,312.11Z"/><path class="cls-1" d="M453.34,86.48a133,133,0,0,1,79.43,46.38,6.41,6.41,0,0,1-1.14,9.2l-23.69,17.65a6.4,6.4,0,0,1-8.72-1A91.22,91.22,0,0,0,378,142.89a6.41,6.41,0,0,1-8.71-1.23L350.9,118.53a6.41,6.41,0,0,1,1.25-9.18A133.59,133.59,0,0,1,453.34,86.48Z"/><path class="cls-1" d="M465.7,6.76A166.23,166.23,0,0,1,566.13,66.1,6.42,6.42,0,0,1,565,75.27L541.29,92.91a6.39,6.39,0,0,1-8.76-1.09,124.66,124.66,0,0,0-168.88-22,6.39,6.39,0,0,1-8.74-1.2L336.54,45.53a6.42,6.42,0,0,1,1.23-9.16A167.07,167.07,0,0,1,465.7,6.76Z"/><path class="cls-2" d="M85.55,248.83V382.47A5.28,5.28,0,0,1,80,388.06H5.59A5.28,5.28,0,0,1,0,382.47V5.59A5.29,5.29,0,0,1,5.59,0h156c77.72,0,124.14,54.24,124.69,124.14-.55,53.68-28,98.41-76,116.3l84.43,140.91q3.36,6.72-3.35,6.71H210.25a9,9,0,0,1-6.15-2.79l-76-136.44Zm0-167.19v85h77.17c9.5,0,38-8.38,38-41.94s-28-42.49-38-43Z"/></svg>