<svg id="Layer_1" data-name="Layer 1" xmlns="http://www.w3.org/2000/svg" viewBox="0 0 2103.96 389.12"><defs><style>.cls-1{fill:#d66a53;}.cls-2{fill:#fff;}</style></defs><title>logo2</title><path class="cls-1" d="M467.13,334.94c18.75-14.55,29.29-32.36,31.16-49.68.24-1.89.75-3.42,1.81-4.24s2.32-.66,3.58-.51l25.48,2.9a4,4,0,0,1,4.2,4.68c-1.88,27.53-17.94,53.59-45.53,75-51.65,40.08-112.4,33.37-151.1-16.51C298.3,297,305.56,237,355.09,198.57c51.65-40.07,108.66-31.6,154.15,27.75,1.65,2.13,1.68,4.37-.44,6l-133,103.21C401,358.5,436,359.1,467.13,334.94Zm-2.9-106c-24.83-23.24-58.37-25.56-87.73-2.77S340.69,282.28,357,312.11Z"/><path class="cls-2" d="M572.15,345.34l28.41-58a5.58,5.58,0,0,1,5.21-3.47,8.24,8.24,0,0,1,3.48,1.16c23.77,12.17,47.55,22,74.22,22,18.55,0,32.47-5.22,32.47-12.18,0-12.17-27.25-17.39-62-27.83C601.72,252,572.73,225.33,571,183c-2.32-62,55.08-92.77,120-92.19,50.44,0,91,24.35,100.3,31.89a6.24,6.24,0,0,1,1.74,8.12L763.48,185.9c-.58,1.74-2.9,2.9-5.22,2.9a8.6,8.6,0,0,1-4.06-.58c-7-2.9-22.61-13.34-50.44-18.55a76,76,0,0,0-15.65-1.17c-19.14,0-31.89,6.38-31.89,12.76,0,10.44,17.39,16.23,45.22,22,62.62,13.34,98,34.21,99.73,87,1.74,58.56-45.23,94.51-112.48,93.93-56.24,0-104.37-22.61-114.8-30.73C571,351.14,570.41,348.82,572.15,345.34Z"/><path class="cls-2" d="M1038.3,351.72c-22.61,22-53.34,34.21-89.87,34.21-60.87,0-101.46-50.44-101.46-126.4V103a5.48,5.48,0,0,1,5.8-5.8h73.05c4.06,0,6.38,2.32,6.38,5.8V239.82c0,44.07,16.81,66.68,49.86,66.68,22-.58,48.13-15.08,50.45-71.32V103c0-3.48,1.74-6.38,6.37-6.38h72.48a5.48,5.48,0,0,1,5.8,5.8l.58,270.77c0,3.47-2.9,5.79-6.38,5.79h-59.72c-4.06,0-6.38-2.32-7.54-5.79Z"/><path class="cls-2" d="M1314.28,306.5c24.35,0,42.91-8.12,52.76-15.66,2.32-1.74,4.06-2.32,5.8-2.32a5.27,5.27,0,0,1,4.06,1.74l44.65,47.55a6.29,6.29,0,0,1,.57,8.69c-26.09,27.83-65.51,38.27-113.63,38.85-88.13,0-147.27-58.56-147.27-146.69,0-87.55,58.56-146.69,146.1-146.69,85.82,0,145.53,49.29,145.53,172.78,0,4.06-2.31,6.38-6.37,6.38H1252.82C1262.1,292,1281.23,306.5,1314.28,306.5ZM1363,211.41c-7-23.77-24.36-40.59-55.67-40.59-31.88,0-49.86,16.82-56.82,40.59Z"/><path class="cls-2" d="M1496.33,103c0-4.06,2.32-6.38,5.8-6.38h60.3c4.06,0,6.38,2.32,7.54,5.8l5.8,22c18-22,44.06-34.79,80.59-34.79,61.46,0,104.94,50.44,104.94,126.4V372.6c0,4-2.32,6.37-5.79,6.37h-73.64c-3.48,0-5.8-2.9-5.8-6.37V235.76c0-38.27-20.29-60.88-47-60.3-22,.58-45.23,16.24-47.55,66.1V373.18c0,2.89-2.89,5.21-5.79,5.21h-73.06c-3.48,0-6.38-2.32-6.38-5.21Z"/><path class="cls-2" d="M2030.9,102.41c1.16-3.48,2.9-5.8,6.38-5.8h61.46c2.9,0,5.22,2.32,5.22,5.8V373.18c.58,2.89-1.74,5.79-5.8,5.79H2036.7c-3.48,0-5.22-2.32-6.37-5.79l-9.28-22.62c-18,22-43.49,34.79-76,34.79-84.65,1.16-141.47-59.72-141.47-146.69,0-87.55,56.82-146.11,141.47-146.69,32.47,0,58,12.18,76,34.21ZM1949.73,300.7c37.69,0,62.62-24.35,62.62-62,0-37.11-25.51-62-62.62-62s-61.46,24.93-61.46,62C1888.27,275.19,1913.78,300.7,1949.73,300.7Z"/><path class="cls-1" d="M453.34,86.48a133,133,0,0,1,79.43,46.38,6.41,6.41,0,0,1-1.14,9.2l-23.69,17.65a6.4,6.4,0,0,1-8.72-1A91.22,91.22,0,0,0,378,142.89a6.41,6.41,0,0,1-8.71-1.23L350.9,118.53a6.41,6.41,0,0,1,1.25-9.18A133.59,133.59,0,0,1,453.34,86.48Z"/><path class="cls-1" d="M465.7,6.76A166.23,166.23,0,0,1,566.13,66.1,6.42,6.42,0,0,1,565,75.27L541.29,92.91a6.39,6.39,0,0,1-8.76-1.09,124.66,124.66,0,0,0-168.88-22,6.39,6.39,0,0,1-8.74-1.2L336.54,45.53a6.42,6.42,0,0,1,1.23-9.16A167.07,167.07,0,0,1,465.7,6.76Z"/><path class="cls-2" d="M85.55,248.83V382.47A5.28,5.28,0,0,1,80,388.06H5.59A5.28,5.28,0,0,1,0,382.47V5.59A5.29,5.29,0,0,1,5.59,0h156c77.72,0,124.14,54.24,124.69,124.14-.55,53.68-28,98.41-76,116.3l84.43,140.91q3.36,6.72-3.35,6.71H210.25a9,9,0,0,1-6.15-2.79l-76-136.44Zm0-167.19v85h77.17c9.5,0,38-8.38,38-41.94s-28-42.49-38-43Z"/></svg>